<svg width="20" height="20" viewBox="0 0 20 20" fill="none" xmlns="http://www.w3.org/2000/svg">
<path d="M5 12C5.28333 12 5.52083 11.9042 5.7125 11.7125C5.90417 11.5208 6 11.2833 6 11C6 10.7167 5.90417 10.4792 5.7125 10.2875C5.52083 10.0958 5.28333 10 5 10C4.71667 10 4.47917 10.0958 4.2875 10.2875C4.09583 10.4792 4 10.7167 4 11C4 11.2833 4.09583 11.5208 4.2875 11.7125C4.47917 11.9042 4.71667 12 5 12ZM5 9C5.28333 9 5.52083 8.90417 5.7125 8.7125C5.90417 8.52083 6 8.28333 6 8C6 7.71667 5.90417 7.47917 5.7125 7.2875C5.52083 7.09583 5.28333 7 5 7C4.71667 7 4.47917 7.09583 4.2875 7.2875C4.09583 7.47917 4 7.71667 4 8C4 8.28333 4.09583 8.52083 4.2875 8.7125C4.47917 8.90417 4.71667 9 5 9ZM5 6C5.28333 6 5.52083 5.90417 5.7125 5.7125C5.90417 5.52083 6 5.28333 6 5C6 4.71667 5.90417 4.47917 5.7125 4.2875C5.52083 4.09583 5.28333 4 5 4C4.71667 4 4.47917 4.09583 4.2875 4.2875C4.09583 4.47917 4 4.71667 4 5C4 5.28333 4.09583 5.52083 4.2875 5.7125C4.47917 5.90417 4.71667 6 5 6ZM8 12H13V10H8V12ZM8 9H16V7H8V9ZM8 6H16V4H8V6ZM0 20V2C0 1.45 0.195833 0.979167 0.5875 0.5875C0.979167 0.195833 1.45 0 2 0H18C18.55 0 19.0208 0.195833 19.4125 0.5875C19.8042 0.979167 20 1.45 20 2V14C20 14.55 19.8042 15.0208 19.4125 15.4125C19.0208 15.8042 18.55 16 18 16H4L0 20ZM3.15 14H18V2H2V15.125L3.15 14Z" fill="black"/>
</svg>
