<svg width="18" height="20" viewBox="0 0 18 20" fill="none" xmlns="http://www.w3.org/2000/svg">
<path d="M13.4 19.2388L12 17.8388L13.575 16.2388L12 14.6638L13.4 13.2388L15 14.8388L16.575 13.2388L18 14.6638L16.4 16.2388L18 17.8388L16.575 19.2388L15 17.6638L13.4 19.2388ZM3 17.2388C3.28333 17.2388 3.52083 17.1429 3.7125 16.9513C3.90417 16.7596 4 16.5221 4 16.2388C4 15.9554 3.90417 15.7179 3.7125 15.5263C3.52083 15.3346 3.28333 15.2388 3 15.2388C2.71667 15.2388 2.47917 15.3346 2.2875 15.5263C2.09583 15.7179 2 15.9554 2 16.2388C2 16.5221 2.09583 16.7596 2.2875 16.9513C2.47917 17.1429 2.71667 17.2388 3 17.2388ZM3 19.2388C2.16667 19.2388 1.45833 18.9471 0.875 18.3638C0.291667 17.7804 0 17.0721 0 16.2388C0 15.4054 0.291667 14.6971 0.875 14.1138C1.45833 13.5304 2.16667 13.2388 3 13.2388C3.61667 13.2388 4.17917 13.4096 4.6875 13.7513C5.19583 14.0929 5.56667 14.5554 5.8 15.1388C6.45 14.9554 6.97917 14.5971 7.3875 14.0638C7.79583 13.5304 8 12.9221 8 12.2388V8.23877C8 6.85544 8.4875 5.67627 9.4625 4.70127C10.4375 3.72627 11.6167 3.23877 13 3.23877H14.15L12.575 1.66377L14 0.23877L18 4.23877L14 8.23877L12.575 6.83877L14.15 5.23877H13C12.1667 5.23877 11.4583 5.53044 10.875 6.11377C10.2917 6.6971 10 7.40544 10 8.23877V12.2388C10 13.4554 9.60833 14.5263 8.825 15.4513C8.04167 16.3763 7.05 16.9471 5.85 17.1638C5.65 17.7804 5.2875 18.2804 4.7625 18.6638C4.2375 19.0471 3.65 19.2388 3 19.2388ZM1.4 7.23877L0 5.83877L1.575 4.23877L0 2.66377L1.4 1.23877L3 2.83877L4.575 1.23877L6 2.66377L4.4 4.23877L6 5.83877L4.575 7.23877L3 5.66377L1.4 7.23877Z" fill="black"/>
</svg>
