<svg width="23" height="23" viewBox="0 0 23 23" fill="none" xmlns="http://www.w3.org/2000/svg">
<path d="M5.2516 10.5035L1.90967 8.59378V4.77443L5.2516 2.86475L8.59354 4.77443V8.59378L5.2516 10.5035ZM5.2516 8.30733L6.68386 7.49572V5.87249L5.2516 5.06088L3.81935 5.87249V7.49572L5.2516 8.30733ZM15.7548 11.2435V9.02346L19.0968 10.9809V17.6648L13.3677 21.0067L7.6387 17.6648V10.9809L10.9806 9.02346V11.2435L9.54838 12.0789V16.5667L13.3677 18.7867L17.1871 16.5667V12.0789L15.7548 11.2435ZM12.4129 13.368V1.90991H21.0064L19.0968 4.77443L21.0064 7.63894H14.3226V13.368H12.4129Z" fill="black"/>
</svg>
