<svg width="20" height="20" viewBox="0 0 20 20" fill="none" xmlns="http://www.w3.org/2000/svg">
<path d="M4.2516 9.50346L0.909668 7.59378V3.77443L4.2516 1.86475L7.59354 3.77443V7.59378L4.2516 9.50346ZM4.2516 7.30733L5.68386 6.49572V4.87249L4.2516 4.06088L2.81935 4.87249V6.49572L4.2516 7.30733ZM14.7548 10.2435V8.02346L18.0968 9.98088V16.6648L12.3677 20.0067L6.6387 16.6648V9.98088L9.98064 8.02346V10.2435L8.54838 11.0789V15.5667L12.3677 17.7867L16.1871 15.5667V11.0789L14.7548 10.2435ZM11.4129 12.368V0.909912H20.0064L18.0968 3.77443L20.0064 6.63894H13.3226V12.368H11.4129Z" fill="black"/>
</svg>
