<svg width="22" height="18" viewBox="0 0 22 18" fill="none" xmlns="http://www.w3.org/2000/svg">
<path d="M0.0498047 18V15.2C0.0498047 14.65 0.191471 14.1333 0.474805 13.65C0.758138 13.1667 1.1498 12.8 1.6498 12.55C2.4998 12.1167 3.45814 11.75 4.5248 11.45C5.59147 11.15 6.76647 11 8.0498 11C9.33314 11 10.5081 11.15 11.5748 11.45C12.6415 11.75 13.5998 12.1167 14.4498 12.55C14.9498 12.8 15.3415 13.1667 15.6248 13.65C15.9081 14.1333 16.0498 14.65 16.0498 15.2V18H0.0498047ZM2.0498 16H14.0498V15.2C14.0498 15.0167 14.004 14.85 13.9123 14.7C13.8206 14.55 13.6998 14.4333 13.5498 14.35C12.9498 14.05 12.179 13.75 11.2373 13.45C10.2956 13.15 9.23314 13 8.0498 13C6.86647 13 5.80397 13.15 4.8623 13.45C3.92064 13.75 3.1498 14.05 2.5498 14.35C2.3998 14.4333 2.27897 14.55 2.1873 14.7C2.09564 14.85 2.0498 15.0167 2.0498 15.2V16ZM8.0498 10C6.9498 10 6.00814 9.60833 5.2248 8.825C4.44147 8.04167 4.0498 7.1 4.0498 6H3.7998C3.6498 6 3.52897 5.95417 3.4373 5.8625C3.34564 5.77083 3.2998 5.65 3.2998 5.5C3.2998 5.35 3.34564 5.22917 3.4373 5.1375C3.52897 5.04583 3.6498 5 3.7998 5H4.0498C4.0498 4.25 4.23314 3.575 4.5998 2.975C4.96647 2.375 5.4498 1.9 6.0498 1.55V2.5C6.0498 2.65 6.09564 2.77083 6.1873 2.8625C6.27897 2.95417 6.3998 3 6.5498 3C6.6998 3 6.82064 2.95417 6.9123 2.8625C7.00397 2.77083 7.0498 2.65 7.0498 2.5V1.15C7.1998 1.1 7.35814 1.0625 7.5248 1.0375C7.69147 1.0125 7.86647 1 8.0498 1C8.23314 1 8.40814 1.0125 8.57481 1.0375C8.74147 1.0625 8.89981 1.1 9.0498 1.15V2.5C9.0498 2.65 9.09564 2.77083 9.1873 2.8625C9.27897 2.95417 9.39981 3 9.5498 3C9.69981 3 9.82064 2.95417 9.9123 2.8625C10.004 2.77083 10.0498 2.65 10.0498 2.5V1.55C10.6498 1.9 11.1331 2.375 11.4998 2.975C11.8665 3.575 12.0498 4.25 12.0498 5H12.2998C12.4498 5 12.5706 5.04583 12.6623 5.1375C12.754 5.22917 12.7998 5.35 12.7998 5.5C12.7998 5.65 12.754 5.77083 12.6623 5.8625C12.5706 5.95417 12.4498 6 12.2998 6H12.0498C12.0498 7.1 11.6581 8.04167 10.8748 8.825C10.0915 9.60833 9.14981 10 8.0498 10ZM8.0498 8C8.5998 8 9.07064 7.80417 9.46231 7.4125C9.85397 7.02083 10.0498 6.55 10.0498 6H6.0498C6.0498 6.55 6.24564 7.02083 6.6373 7.4125C7.02897 7.80417 7.4998 8 8.0498 8ZM15.5498 12L15.3998 11.25C15.2998 11.2167 15.204 11.1792 15.1123 11.1375C15.0206 11.0958 14.9331 11.0333 14.8498 10.95L14.1498 11.2L13.6498 10.3L14.1998 9.8V9.2L13.6498 8.7L14.1498 7.8L14.8498 8.05C14.9165 7.98333 14.9998 7.925 15.0998 7.875C15.1998 7.825 15.2998 7.78333 15.3998 7.75L15.5498 7H16.5498L16.6998 7.75C16.7998 7.78333 16.8998 7.825 16.9998 7.875C17.0998 7.925 17.1831 7.98333 17.2498 8.05L17.9498 7.8L18.4498 8.7L17.8998 9.2V9.8L18.4498 10.3L17.9498 11.2L17.2498 10.95C17.1665 11.0333 17.079 11.0958 16.9873 11.1375C16.8956 11.1792 16.7998 11.2167 16.6998 11.25L16.5498 12H15.5498ZM16.0498 10.25C16.2498 10.25 16.4248 10.175 16.5748 10.025C16.7248 9.875 16.7998 9.7 16.7998 9.5C16.7998 9.3 16.7248 9.125 16.5748 8.975C16.4248 8.825 16.2498 8.75 16.0498 8.75C15.8498 8.75 15.6748 8.825 15.5248 8.975C15.3748 9.125 15.2998 9.3 15.2998 9.5C15.2998 9.7 15.3748 9.875 15.5248 10.025C15.6748 10.175 15.8498 10.25 16.0498 10.25ZM17.8498 7L17.6498 5.95C17.4998 5.9 17.3623 5.8375 17.2373 5.7625C17.1123 5.6875 16.9998 5.6 16.8998 5.5L15.8498 5.85L15.1498 4.65L15.9998 3.9C15.9665 3.81667 15.9498 3.75 15.9498 3.7V3.3C15.9498 3.25 15.9665 3.18333 15.9998 3.1L15.1498 2.35L15.8498 1.15L16.8998 1.5C16.9998 1.4 17.1123 1.3125 17.2373 1.2375C17.3623 1.1625 17.4998 1.1 17.6498 1.05L17.8498 0H19.2498L19.4498 1.05C19.5998 1.1 19.7373 1.1625 19.8623 1.2375C19.9873 1.3125 20.0998 1.4 20.1998 1.5L21.2498 1.15L21.9498 2.35L21.0998 3.1C21.1331 3.18333 21.1498 3.25 21.1498 3.3V3.7C21.1498 3.75 21.1331 3.81667 21.0998 3.9L21.9498 4.65L21.2498 5.85L20.1998 5.5C20.0998 5.6 19.9873 5.6875 19.8623 5.7625C19.7373 5.8375 19.5998 5.9 19.4498 5.95L19.2498 7H17.8498ZM18.5498 4.75C18.8998 4.75 19.1956 4.62917 19.4373 4.3875C19.679 4.14583 19.7998 3.85 19.7998 3.5C19.7998 3.15 19.679 2.85417 19.4373 2.6125C19.1956 2.37083 18.8998 2.25 18.5498 2.25C18.1998 2.25 17.904 2.37083 17.6623 2.6125C17.4206 2.85417 17.2998 3.15 17.2998 3.5C17.2998 3.85 17.4206 4.14583 17.6623 4.3875C17.904 4.62917 18.1998 4.75 18.5498 4.75Z" fill="black"/>
</svg>
