<svg width="25" height="24" viewBox="0 0 25 24" fill="none" xmlns="http://www.w3.org/2000/svg">
<path d="M11 8.2501C10.8071 8.23535 10.6276 8.1456 10.5 8.0001L8.50002 6.0001L6.50002 8.0001C6.44831 8.10837 6.37138 8.20266 6.27568 8.27504C6.17999 8.34742 6.06833 8.39579 5.95007 8.41608C5.83181 8.43637 5.71041 8.42799 5.59606 8.39164C5.48171 8.3553 5.37775 8.29205 5.29291 8.20721C5.20807 8.12237 5.14482 8.01841 5.10848 7.90406C5.07213 7.78971 5.06375 7.66831 5.08404 7.55005C5.10433 7.43179 5.1527 7.32013 5.22508 7.22444C5.29746 7.12874 5.39175 7.05181 5.50002 7.0001L8.00002 4.5001C8.14064 4.35965 8.33127 4.28076 8.53002 4.28076C8.72877 4.28076 8.91939 4.35965 9.06002 4.5001L11.5 7.0001C11.623 7.13761 11.691 7.31562 11.691 7.5001C11.691 7.68458 11.623 7.8626 11.5 8.0001C11.3724 8.1456 11.193 8.23535 11 8.2501Z" fill="#1E293B"/>
<path d="M8.5 19.75C8.30189 19.7474 8.11263 19.6676 7.97253 19.5275C7.83244 19.3874 7.75259 19.1981 7.75 19V5C7.75 4.80109 7.82902 4.61032 7.96967 4.46967C8.11032 4.32902 8.30109 4.25 8.5 4.25C8.69891 4.25 8.88968 4.32902 9.03033 4.46967C9.17098 4.61032 9.25 4.80109 9.25 5V19C9.24741 19.1981 9.16756 19.3874 9.02747 19.5275C8.88737 19.6676 8.69811 19.7474 8.5 19.75Z" fill="#1E293B"/>
<path d="M16.5 19.75C16.4015 19.7505 16.3038 19.7313 16.2128 19.6935C16.1218 19.6557 16.0393 19.6001 15.97 19.53L13.5 17C13.3917 16.9483 13.2975 16.8714 13.2251 16.7757C13.1527 16.68 13.1043 16.5683 13.084 16.4501C13.0638 16.3318 13.0721 16.2104 13.1085 16.0961C13.1448 15.9817 13.2081 15.8778 13.2929 15.7929C13.3778 15.7081 13.4817 15.6448 13.5961 15.6085C13.7104 15.5721 13.8318 15.5638 13.9501 15.584C14.0683 15.6043 14.18 15.6527 14.2757 15.7251C14.3714 15.7975 14.4483 15.8917 14.5 16L16.5 18L18.5 16C18.5517 15.8917 18.6287 15.7975 18.7244 15.7251C18.82 15.6527 18.9317 15.6043 19.05 15.584C19.1682 15.5638 19.2896 15.5721 19.404 15.6085C19.5183 15.6448 19.6223 15.7081 19.7071 15.7929C19.792 15.8778 19.8552 15.9817 19.8916 16.0961C19.9279 16.2104 19.9363 16.3318 19.916 16.4501C19.8957 16.5683 19.8473 16.68 19.775 16.7757C19.7026 16.8714 19.6083 16.9483 19.5 17L17 19.5C16.8724 19.6455 16.693 19.7353 16.5 19.75Z" fill="#1E293B"/>
<path d="M16.5 19.75C16.3019 19.7474 16.1126 19.6676 15.9725 19.5275C15.8324 19.3874 15.7526 19.1981 15.75 19V5C15.75 4.80109 15.829 4.61032 15.9697 4.46967C16.1103 4.32902 16.3011 4.25 16.5 4.25C16.6989 4.25 16.8897 4.32902 17.0303 4.46967C17.171 4.61032 17.25 4.80109 17.25 5V19C17.2474 19.1981 17.1676 19.3874 17.0275 19.5275C16.8874 19.6676 16.6981 19.7474 16.5 19.75Z" fill="#1E293B"/>
</svg>
