<svg width="18" height="21" viewBox="0 0 18 21" fill="none" xmlns="http://www.w3.org/2000/svg">
<path d="M2 20.5C1.45 20.5 0.979167 20.3042 0.5875 19.9125C0.195833 19.5208 0 19.05 0 18.5V4.5C0 3.95 0.195833 3.47917 0.5875 3.0875C0.979167 2.69583 1.45 2.5 2 2.5H6.2C6.43333 1.9 6.8 1.41667 7.3 1.05C7.8 0.683333 8.36667 0.5 9 0.5C9.63333 0.5 10.2 0.683333 10.7 1.05C11.2 1.41667 11.5667 1.9 11.8 2.5H16C16.55 2.5 17.0208 2.69583 17.4125 3.0875C17.8042 3.47917 18 3.95 18 4.5V18.5C18 19.05 17.8042 19.5208 17.4125 19.9125C17.0208 20.3042 16.55 20.5 16 20.5H2ZM9 3.75C9.21667 3.75 9.39583 3.67917 9.5375 3.5375C9.67917 3.39583 9.75 3.21667 9.75 3C9.75 2.78333 9.67917 2.60417 9.5375 2.4625C9.39583 2.32083 9.21667 2.25 9 2.25C8.78333 2.25 8.60417 2.32083 8.4625 2.4625C8.32083 2.60417 8.25 2.78333 8.25 3C8.25 3.21667 8.32083 3.39583 8.4625 3.5375C8.60417 3.67917 8.78333 3.75 9 3.75ZM2 17.35C2.9 16.4667 3.94583 15.7708 5.1375 15.2625C6.32917 14.7542 7.61667 14.5 9 14.5C10.3833 14.5 11.6708 14.7542 12.8625 15.2625C14.0542 15.7708 15.1 16.4667 16 17.35V4.5H2V17.35ZM9 12.5C9.96667 12.5 10.7917 12.1583 11.475 11.475C12.1583 10.7917 12.5 9.96667 12.5 9C12.5 8.03333 12.1583 7.20833 11.475 6.525C10.7917 5.84167 9.96667 5.5 9 5.5C8.03333 5.5 7.20833 5.84167 6.525 6.525C5.84167 7.20833 5.5 8.03333 5.5 9C5.5 9.96667 5.84167 10.7917 6.525 11.475C7.20833 12.1583 8.03333 12.5 9 12.5ZM4 18.5H14V18.25C13.3 17.6667 12.525 17.2292 11.675 16.9375C10.825 16.6458 9.93333 16.5 9 16.5C8.06667 16.5 7.175 16.6458 6.325 16.9375C5.475 17.2292 4.7 17.6667 4 18.25V18.5ZM9 10.5C8.58333 10.5 8.22917 10.3542 7.9375 10.0625C7.64583 9.77083 7.5 9.41667 7.5 9C7.5 8.58333 7.64583 8.22917 7.9375 7.9375C8.22917 7.64583 8.58333 7.5 9 7.5C9.41667 7.5 9.77083 7.64583 10.0625 7.9375C10.3542 8.22917 10.5 8.58333 10.5 9C10.5 9.41667 10.3542 9.77083 10.0625 10.0625C9.77083 10.3542 9.41667 10.5 9 10.5Z" fill="#868686"/>
</svg>
